<svg xmlns="http://www.w3.org/2000/svg" width="24" height="24" viewBox="0 0 24 24">
    <g fill="none" fill-rule="evenodd">
        <path d="M0 0H24V24H0z"/>
        <g>
            <path stroke="#000" d="M1.991 3H13.01c.517 0 .95.395.996.91l.897 10c.05.55-.356 1.037-.906 1.086-.03.003-.06.004-.09.004H1.094c-.553 0-1-.448-1-1 0-.03.001-.06.004-.09l.897-10c.046-.515.479-.91.996-.91z" transform="translate(4.5 4.5)"/>
            <path fill="#000" d="M4.685 9.587l.47-.22.82.478 1.36-.634L5.812 7.63l.516-.24 2.176 1.277 1.378-.643c.381-.176.64-.118.778.176.137.294.015.53-.367.706L6.081 10.87c-.096.048-.175.039-.238-.028-.063-.066-.45-.485-1.158-1.255z" transform="translate(4.5 4.5)"/>
            <path stroke="#000" stroke-linejoin="round" d="M5 2.5V1c0-.552.448-1 1-1h3c.552 0 1 .448 1 1v1.5h0" transform="translate(4.5 4.5)"/>
        </g>
    </g>
</svg>
